<svg xmlns="http://www.w3.org/2000/svg" width="860" height="149" viewBox="0 0 860 149"><g transform="translate(0.5,0.5)" text-anchor="middle" font-size="14" font-family="sans-serif" font-weight="normal"><g transform="translate(4,21)"><g stroke="black" stroke-width="1" stroke-linecap="round"><line x2="712"/><line x2="712" y1="31" y2="31"/><line y2="31"/><line x1="712" x2="712" y2="31"/><line x1="689" x2="689" y2="3"/><line x1="689" x2="689" y1="31" y2="28"/><line x1="667" x2="667" y2="3"/><line x1="667" x2="667" y1="31" y2="28"/><line x1="645" x2="645" y2="3"/><line x1="645" x2="645" y1="31" y2="28"/><line x1="623" x2="623" y2="3"/><line x1="623" x2="623" y1="31" y2="28"/><line x1="600" x2="600" y2="3"/><line x1="600" x2="600" y1="31" y2="28"/><line x1="578" x2="578" y2="3"/><line x1="578" x2="578" y1="31" y2="28"/><line x1="556" x2="556" y2="31"/><line x1="534" x2="534" y2="3"/><line x1="534" x2="534" y1="31" y2="28"/><line x1="512" x2="512" y2="3"/><line x1="512" x2="512" y1="31" y2="28"/><line x1="489" x2="489" y2="3"/><line x1="489" x2="489" y1="31" y2="28"/><line x1="467" x2="467" y2="3"/><line x1="467" x2="467" y1="31" y2="28"/><line x1="445" x2="445" y2="31"/><line x1="423" x2="423" y2="3"/><line x1="423" x2="423" y1="31" y2="28"/><line x1="400" x2="400" y2="3"/><line x1="400" x2="400" y1="31" y2="28"/><line x1="378" x2="378" y2="31"/><line x1="356" x2="356" y2="3"/><line x1="356" x2="356" y1="31" y2="28"/><line x1="334" x2="334" y2="3"/><line x1="334" x2="334" y1="31" y2="28"/><line x1="311" x2="311" y2="3"/><line x1="311" x2="311" y1="31" y2="28"/><line x1="289" x2="289" y2="3"/><line x1="289" x2="289" y1="31" y2="28"/><line x1="267" x2="267" y2="31"/><line x1="245" x2="245" y2="3"/><line x1="245" x2="245" y1="31" y2="28"/><line x1="222" x2="222" y2="3"/><line x1="222" x2="222" y1="31" y2="28"/><line x1="200" x2="200" y2="3"/><line x1="200" x2="200" y1="31" y2="28"/><line x1="178" x2="178" y2="3"/><line x1="178" x2="178" y1="31" y2="28"/><line x1="156" x2="156" y2="31"/><line x1="133" x2="133" y2="3"/><line x1="133" x2="133" y1="31" y2="28"/><line x1="111" x2="111" y2="3"/><line x1="111" x2="111" y1="31" y2="28"/><line x1="89" x2="89" y2="3"/><line x1="89" x2="89" y1="31" y2="28"/><line x1="67" x2="67" y2="3"/><line x1="67" x2="67" y1="31" y2="28"/><line x1="44" x2="44" y2="3"/><line x1="44" x2="44" y1="31" y2="28"/><line x1="22" x2="22" y2="3"/><line x1="22" x2="22" y1="31" y2="28"/></g><g><g><rect x="445" width="111" height="31" style="fill-opacity:0.1;fill:hsl(0,100%,50%)"/><rect x="267" width="111" height="31" style="fill-opacity:0.1;fill:hsl(170,100%,50%)"/></g><g transform="translate(11,-11)"/><g transform="translate(11,15)"><g><g transform="translate(689)"><text y="6">1</text></g><g transform="translate(667)"><text y="6">1</text></g><g transform="translate(645)"><text y="6">0</text></g><g transform="translate(623)"><text y="6">0</text></g><g transform="translate(600)"><text y="6">1</text></g><g transform="translate(578)"><text y="6">0</text></g><g transform="translate(556)"><text y="6">1</text></g></g><g transform="translate(489)"><text y="6"><tspan>rd</tspan></text></g><g transform="translate(400)"><text y="6"><tspan>rm</tspan></text></g><g transform="translate(311)"><text y="6"><tspan>rs1</tspan></text></g><g><g transform="translate(245)"><text y="6">0</text></g><g transform="translate(222)"><text y="6">1</text></g><g transform="translate(200)"><text y="6">0</text></g><g transform="translate(178)"><text y="6">0</text></g><g transform="translate(156)"><text y="6">0</text></g></g><g><g transform="translate(133)"><text y="6">1</text></g><g transform="translate(111)"><text y="6">1</text></g><g transform="translate(89)"><text y="6">0</text></g><g transform="translate(67)"><text y="6">0</text></g><g transform="translate(44)"><text y="6">0</text></g><g transform="translate(22)"><text y="6">1</text></g><g transform="translate(0)"><text y="6">1</text></g></g></g><g transform="translate(11,39)"/></g><g text-anchor="start"><g transform="translate(716,16)"><text y="6"><tspan>FCVT.L.Q</tspan></text></g></g></g><g transform="translate(4,52)"><g stroke="black" stroke-width="1" stroke-linecap="round"><line x2="712"/><line x2="712" y1="31" y2="31"/><line y2="31"/><line x1="712" x2="712" y2="31"/><line x1="689" x2="689" y2="3"/><line x1="689" x2="689" y1="31" y2="28"/><line x1="667" x2="667" y2="3"/><line x1="667" x2="667" y1="31" y2="28"/><line x1="645" x2="645" y2="3"/><line x1="645" x2="645" y1="31" y2="28"/><line x1="623" x2="623" y2="3"/><line x1="623" x2="623" y1="31" y2="28"/><line x1="600" x2="600" y2="3"/><line x1="600" x2="600" y1="31" y2="28"/><line x1="578" x2="578" y2="3"/><line x1="578" x2="578" y1="31" y2="28"/><line x1="556" x2="556" y2="31"/><line x1="534" x2="534" y2="3"/><line x1="534" x2="534" y1="31" y2="28"/><line x1="512" x2="512" y2="3"/><line x1="512" x2="512" y1="31" y2="28"/><line x1="489" x2="489" y2="3"/><line x1="489" x2="489" y1="31" y2="28"/><line x1="467" x2="467" y2="3"/><line x1="467" x2="467" y1="31" y2="28"/><line x1="445" x2="445" y2="31"/><line x1="423" x2="423" y2="3"/><line x1="423" x2="423" y1="31" y2="28"/><line x1="400" x2="400" y2="3"/><line x1="400" x2="400" y1="31" y2="28"/><line x1="378" x2="378" y2="31"/><line x1="356" x2="356" y2="3"/><line x1="356" x2="356" y1="31" y2="28"/><line x1="334" x2="334" y2="3"/><line x1="334" x2="334" y1="31" y2="28"/><line x1="311" x2="311" y2="3"/><line x1="311" x2="311" y1="31" y2="28"/><line x1="289" x2="289" y2="3"/><line x1="289" x2="289" y1="31" y2="28"/><line x1="267" x2="267" y2="31"/><line x1="245" x2="245" y2="3"/><line x1="245" x2="245" y1="31" y2="28"/><line x1="222" x2="222" y2="3"/><line x1="222" x2="222" y1="31" y2="28"/><line x1="200" x2="200" y2="3"/><line x1="200" x2="200" y1="31" y2="28"/><line x1="178" x2="178" y2="3"/><line x1="178" x2="178" y1="31" y2="28"/><line x1="156" x2="156" y2="31"/><line x1="133" x2="133" y2="3"/><line x1="133" x2="133" y1="31" y2="28"/><line x1="111" x2="111" y2="3"/><line x1="111" x2="111" y1="31" y2="28"/><line x1="89" x2="89" y2="3"/><line x1="89" x2="89" y1="31" y2="28"/><line x1="67" x2="67" y2="3"/><line x1="67" x2="67" y1="31" y2="28"/><line x1="44" x2="44" y2="3"/><line x1="44" x2="44" y1="31" y2="28"/><line x1="22" x2="22" y2="3"/><line x1="22" x2="22" y1="31" y2="28"/></g><g><g><rect x="445" width="111" height="31" style="fill-opacity:0.1;fill:hsl(0,100%,50%)"/><rect x="267" width="111" height="31" style="fill-opacity:0.1;fill:hsl(170,100%,50%)"/></g><g transform="translate(11,-11)"/><g transform="translate(11,15)"><g><g transform="translate(689)"><text y="6">1</text></g><g transform="translate(667)"><text y="6">1</text></g><g transform="translate(645)"><text y="6">0</text></g><g transform="translate(623)"><text y="6">0</text></g><g transform="translate(600)"><text y="6">1</text></g><g transform="translate(578)"><text y="6">0</text></g><g transform="translate(556)"><text y="6">1</text></g></g><g transform="translate(489)"><text y="6"><tspan>rd</tspan></text></g><g transform="translate(400)"><text y="6"><tspan>rm</tspan></text></g><g transform="translate(311)"><text y="6"><tspan>rs1</tspan></text></g><g><g transform="translate(245)"><text y="6">1</text></g><g transform="translate(222)"><text y="6">1</text></g><g transform="translate(200)"><text y="6">0</text></g><g transform="translate(178)"><text y="6">0</text></g><g transform="translate(156)"><text y="6">0</text></g></g><g><g transform="translate(133)"><text y="6">1</text></g><g transform="translate(111)"><text y="6">1</text></g><g transform="translate(89)"><text y="6">0</text></g><g transform="translate(67)"><text y="6">0</text></g><g transform="translate(44)"><text y="6">0</text></g><g transform="translate(22)"><text y="6">1</text></g><g transform="translate(0)"><text y="6">1</text></g></g></g><g transform="translate(11,39)"/></g><g text-anchor="start"><g transform="translate(716,16)"><text y="6"><tspan>FCVT.LU.Q</tspan></text></g></g></g><g transform="translate(4,83)"><g stroke="black" stroke-width="1" stroke-linecap="round"><line x2="712"/><line x2="712" y1="31" y2="31"/><line y2="31"/><line x1="712" x2="712" y2="31"/><line x1="689" x2="689" y2="3"/><line x1="689" x2="689" y1="31" y2="28"/><line x1="667" x2="667" y2="3"/><line x1="667" x2="667" y1="31" y2="28"/><line x1="645" x2="645" y2="3"/><line x1="645" x2="645" y1="31" y2="28"/><line x1="623" x2="623" y2="3"/><line x1="623" x2="623" y1="31" y2="28"/><line x1="600" x2="600" y2="3"/><line x1="600" x2="600" y1="31" y2="28"/><line x1="578" x2="578" y2="3"/><line x1="578" x2="578" y1="31" y2="28"/><line x1="556" x2="556" y2="31"/><line x1="534" x2="534" y2="3"/><line x1="534" x2="534" y1="31" y2="28"/><line x1="512" x2="512" y2="3"/><line x1="512" x2="512" y1="31" y2="28"/><line x1="489" x2="489" y2="3"/><line x1="489" x2="489" y1="31" y2="28"/><line x1="467" x2="467" y2="3"/><line x1="467" x2="467" y1="31" y2="28"/><line x1="445" x2="445" y2="31"/><line x1="423" x2="423" y2="3"/><line x1="423" x2="423" y1="31" y2="28"/><line x1="400" x2="400" y2="3"/><line x1="400" x2="400" y1="31" y2="28"/><line x1="378" x2="378" y2="31"/><line x1="356" x2="356" y2="3"/><line x1="356" x2="356" y1="31" y2="28"/><line x1="334" x2="334" y2="3"/><line x1="334" x2="334" y1="31" y2="28"/><line x1="311" x2="311" y2="3"/><line x1="311" x2="311" y1="31" y2="28"/><line x1="289" x2="289" y2="3"/><line x1="289" x2="289" y1="31" y2="28"/><line x1="267" x2="267" y2="31"/><line x1="245" x2="245" y2="3"/><line x1="245" x2="245" y1="31" y2="28"/><line x1="222" x2="222" y2="3"/><line x1="222" x2="222" y1="31" y2="28"/><line x1="200" x2="200" y2="3"/><line x1="200" x2="200" y1="31" y2="28"/><line x1="178" x2="178" y2="3"/><line x1="178" x2="178" y1="31" y2="28"/><line x1="156" x2="156" y2="31"/><line x1="133" x2="133" y2="3"/><line x1="133" x2="133" y1="31" y2="28"/><line x1="111" x2="111" y2="3"/><line x1="111" x2="111" y1="31" y2="28"/><line x1="89" x2="89" y2="3"/><line x1="89" x2="89" y1="31" y2="28"/><line x1="67" x2="67" y2="3"/><line x1="67" x2="67" y1="31" y2="28"/><line x1="44" x2="44" y2="3"/><line x1="44" x2="44" y1="31" y2="28"/><line x1="22" x2="22" y2="3"/><line x1="22" x2="22" y1="31" y2="28"/></g><g><g><rect x="445" width="111" height="31" style="fill-opacity:0.1;fill:hsl(0,100%,50%)"/><rect x="267" width="111" height="31" style="fill-opacity:0.1;fill:hsl(170,100%,50%)"/></g><g transform="translate(11,-11)"/><g transform="translate(11,15)"><g><g transform="translate(689)"><text y="6">1</text></g><g transform="translate(667)"><text y="6">1</text></g><g transform="translate(645)"><text y="6">0</text></g><g transform="translate(623)"><text y="6">0</text></g><g transform="translate(600)"><text y="6">1</text></g><g transform="translate(578)"><text y="6">0</text></g><g transform="translate(556)"><text y="6">1</text></g></g><g transform="translate(489)"><text y="6"><tspan>rd</tspan></text></g><g transform="translate(400)"><text y="6"><tspan>rm</tspan></text></g><g transform="translate(311)"><text y="6"><tspan>rs1</tspan></text></g><g><g transform="translate(245)"><text y="6">0</text></g><g transform="translate(222)"><text y="6">1</text></g><g transform="translate(200)"><text y="6">0</text></g><g transform="translate(178)"><text y="6">0</text></g><g transform="translate(156)"><text y="6">0</text></g></g><g><g transform="translate(133)"><text y="6">1</text></g><g transform="translate(111)"><text y="6">1</text></g><g transform="translate(89)"><text y="6">0</text></g><g transform="translate(67)"><text y="6">1</text></g><g transform="translate(44)"><text y="6">0</text></g><g transform="translate(22)"><text y="6">1</text></g><g transform="translate(0)"><text y="6">1</text></g></g></g><g transform="translate(11,39)"/></g><g text-anchor="start"><g transform="translate(716,16)"><text y="6"><tspan>FCVT.Q.L</tspan></text></g></g></g><g transform="translate(4,114)"><g stroke="black" stroke-width="1" stroke-linecap="round"><line x2="712"/><line x2="712" y1="31" y2="31"/><line y2="31"/><line x1="712" x2="712" y2="31"/><line x1="689" x2="689" y2="3"/><line x1="689" x2="689" y1="31" y2="28"/><line x1="667" x2="667" y2="3"/><line x1="667" x2="667" y1="31" y2="28"/><line x1="645" x2="645" y2="3"/><line x1="645" x2="645" y1="31" y2="28"/><line x1="623" x2="623" y2="3"/><line x1="623" x2="623" y1="31" y2="28"/><line x1="600" x2="600" y2="3"/><line x1="600" x2="600" y1="31" y2="28"/><line x1="578" x2="578" y2="3"/><line x1="578" x2="578" y1="31" y2="28"/><line x1="556" x2="556" y2="31"/><line x1="534" x2="534" y2="3"/><line x1="534" x2="534" y1="31" y2="28"/><line x1="512" x2="512" y2="3"/><line x1="512" x2="512" y1="31" y2="28"/><line x1="489" x2="489" y2="3"/><line x1="489" x2="489" y1="31" y2="28"/><line x1="467" x2="467" y2="3"/><line x1="467" x2="467" y1="31" y2="28"/><line x1="445" x2="445" y2="31"/><line x1="423" x2="423" y2="3"/><line x1="423" x2="423" y1="31" y2="28"/><line x1="400" x2="400" y2="3"/><line x1="400" x2="400" y1="31" y2="28"/><line x1="378" x2="378" y2="31"/><line x1="356" x2="356" y2="3"/><line x1="356" x2="356" y1="31" y2="28"/><line x1="334" x2="334" y2="3"/><line x1="334" x2="334" y1="31" y2="28"/><line x1="311" x2="311" y2="3"/><line x1="311" x2="311" y1="31" y2="28"/><line x1="289" x2="289" y2="3"/><line x1="289" x2="289" y1="31" y2="28"/><line x1="267" x2="267" y2="31"/><line x1="245" x2="245" y2="3"/><line x1="245" x2="245" y1="31" y2="28"/><line x1="222" x2="222" y2="3"/><line x1="222" x2="222" y1="31" y2="28"/><line x1="200" x2="200" y2="3"/><line x1="200" x2="200" y1="31" y2="28"/><line x1="178" x2="178" y2="3"/><line x1="178" x2="178" y1="31" y2="28"/><line x1="156" x2="156" y2="31"/><line x1="133" x2="133" y2="3"/><line x1="133" x2="133" y1="31" y2="28"/><line x1="111" x2="111" y2="3"/><line x1="111" x2="111" y1="31" y2="28"/><line x1="89" x2="89" y2="3"/><line x1="89" x2="89" y1="31" y2="28"/><line x1="67" x2="67" y2="3"/><line x1="67" x2="67" y1="31" y2="28"/><line x1="44" x2="44" y2="3"/><line x1="44" x2="44" y1="31" y2="28"/><line x1="22" x2="22" y2="3"/><line x1="22" x2="22" y1="31" y2="28"/></g><g><g><rect x="445" width="111" height="31" style="fill-opacity:0.1;fill:hsl(0,100%,50%)"/><rect x="267" width="111" height="31" style="fill-opacity:0.1;fill:hsl(170,100%,50%)"/></g><g transform="translate(11,-11)"/><g transform="translate(11,15)"><g><g transform="translate(689)"><text y="6">1</text></g><g transform="translate(667)"><text y="6">1</text></g><g transform="translate(645)"><text y="6">0</text></g><g transform="translate(623)"><text y="6">0</text></g><g transform="translate(600)"><text y="6">1</text></g><g transform="translate(578)"><text y="6">0</text></g><g transform="translate(556)"><text y="6">1</text></g></g><g transform="translate(489)"><text y="6"><tspan>rd</tspan></text></g><g transform="translate(400)"><text y="6"><tspan>rm</tspan></text></g><g transform="translate(311)"><text y="6"><tspan>rs1</tspan></text></g><g><g transform="translate(245)"><text y="6">1</text></g><g transform="translate(222)"><text y="6">1</text></g><g transform="translate(200)"><text y="6">0</text></g><g transform="translate(178)"><text y="6">0</text></g><g transform="translate(156)"><text y="6">0</text></g></g><g><g transform="translate(133)"><text y="6">1</text></g><g transform="translate(111)"><text y="6">1</text></g><g transform="translate(89)"><text y="6">0</text></g><g transform="translate(67)"><text y="6">1</text></g><g transform="translate(44)"><text y="6">0</text></g><g transform="translate(22)"><text y="6">1</text></g><g transform="translate(0)"><text y="6">1</text></g></g></g><g transform="translate(11,39)"/></g><g text-anchor="start"><g transform="translate(716,16)"><text y="6"><tspan>FCVT.Q.LU</tspan></text></g></g></g><g transform="translate(4,-3)"><g transform="translate(11,11)"><text y="6">31</text></g><g transform="translate(145,11)"><text y="6">25</text></g><g transform="translate(167,11)"><text y="6">24</text></g><g transform="translate(256,11)"><text y="6">20</text></g><g transform="translate(278,11)"><text y="6">19</text></g><g transform="translate(367,11)"><text y="6">15</text></g><g transform="translate(389,11)"><text y="6">14</text></g><g transform="translate(434,11)"><text y="6">12</text></g><g transform="translate(456,11)"><text y="6">11</text></g><g transform="translate(545,11)"><text y="6">7</text></g><g transform="translate(567,11)"><text y="6">6</text></g><g transform="translate(701,11)"><text y="6">0</text></g></g></g></svg>